Coordinates
version=1
nRows=12
nColumns=34
inDegrees=yes

Units are S.I. units (second, meters, Newtons, ...)
If the header above contains a line with 'inDegrees', this indicates whether rotational values are in degrees (yes) or radians (no).

endheader
time	pelvis_tilt	pelvis_list	pelvis_rotation	pelvis_tx	pelvis_ty	pelvis_tz	hip_flexion_r	hip_adduction_r	hip_rotation_r	knee_angle_r	ankle_angle_r	subtalar_angle_r	mtp_angle_r	hip_flexion_l	hip_adduction_l	hip_rotation_l	knee_angle_l	ankle_angle_l	subtalar_angle_l	mtp_angle_l	lumbar_extension	lumbar_bending	lumbar_rotation	arm_flex_r	arm_add_r	arm_rot_r	elbow_flex_r	pro_sup_r	arm_flex_l	arm_add_l	arm_rot_l	elbow_flex_l	pro_sup_l
      1.70000000	     -1.95073412	      3.76726335	     -2.28322374	      0.55559166	      0.92329725	      0.21945139	     26.40092710	     -1.53839036	      0.65226260	    -52.68145168	     -0.81918897	     -6.44680489	     22.50180155	      2.79916913	      7.45041612	     -1.60963793	    -12.80980995	      9.80214916	     -0.28306299	      7.54021809	     -3.48845360	     -2.58771898	     -3.29179341	     -4.85376348	    -16.47914515	     10.34682316	     19.58125097	     90.00000000	      1.54753244	    -17.99589048	     17.98100190	     29.22164940	     90.00000000
      1.71000000	     -1.89224065	      3.48690048	     -2.05597889	      0.56853650	      0.92334944	      0.21971119	     26.81289726	     -1.44188464	      0.20363754	    -49.46122925	     -0.29706910	     -6.75815097	     22.26305542	      1.38226268	      7.17424858	     -1.36544417	    -12.03545675	     10.14021743	     -0.12261125	      7.49465203	     -3.62856761	     -2.20936559	     -3.73147721	     -5.20326126	    -16.45255814	      9.93460997	     19.02016221	     90.00000000	      1.98672442	    -18.32005019	     17.69991999	     30.97989118	     90.00000000
      1.72000000	     -1.44239612	      3.33374469	     -1.86171362	      0.58164542	      0.92380536	      0.22010150	     26.66482567	     -1.51165681	     -0.23612500	    -45.92887377	     -0.07026801	     -7.39634783	     21.35381347	     -0.50864485	      6.99573925	     -1.39222890	    -11.12295986	     10.50997055	      0.43449636	      7.35183933	     -4.24883341	     -2.02423887	     -4.34935931	     -5.16907009	    -16.29421591	      9.23295922	     18.01963015	     90.00000000	      2.02484976	    -18.73112096	     16.38394058	     33.52619686	     90.00000000
      1.73000000	     -1.41398915	      3.17049871	     -1.54424362	      0.59463787	      0.92340111	      0.22031033	     26.82790255	     -1.56231340	     -0.70295976	    -42.12709074	      0.07569168	     -7.94580597	     20.91081127	     -1.86664633	      6.80981138	     -1.16455234	    -10.38586673	     10.86281793	      0.54832625	      7.28302674	     -4.36576561	     -1.77921728	     -4.85087424	     -5.49357777	    -16.24240532	      8.87669444	     17.52137260	     90.00000000	      2.42219584	    -19.04956150	     16.12139146	     35.25005481	     90.00000000
      1.74000000	     -1.13879201	      3.11189203	     -1.37209983	      0.60804920	      0.92311639	      0.22090156	     26.60804973	     -1.68157488	     -1.06541511	    -38.10851439	      0.10184798	     -8.24125907	     20.39091555	     -3.61625629	      6.71084188	     -1.00125098	     -9.42531371	     11.03607993	      0.95754621	      7.15496918	     -4.71562461	     -1.68348293	     -5.21364827	     -5.71545076	    -16.09657279	      8.46004189	     16.82407124	     90.00000000	      2.77065297	    -19.34183990	     15.60674377	     36.96428148	     90.00000000
      1.75000000	     -0.84558019	      3.06011697	     -1.13885550	      0.62139855	      0.92265659	      0.22152642	     26.24055208	     -1.77863982	     -1.43072589	    -33.86232695	      0.13758810	     -8.63848007	     19.72991013	     -5.28634131	      6.59290061	     -1.05080265	     -8.62839717	     11.13506685	      1.30790113	      7.03708475	     -5.11376003	     -1.62775246	     -5.64402458	     -5.89672090	    -15.96993884	      8.07693816	     16.12103173	     90.00000000	      3.00473820	    -19.73515578	     15.03298878	     38.91525038	     90.00000000
      1.76000000	     -0.70277540	      3.10157380	     -0.91168506	      0.63485625	      0.92181206	      0.22215227	     25.97319443	     -1.97629755	     -1.76911988	    -29.56786375	      0.14345355	     -8.55844440	     19.22913967	     -6.79275124	      6.56659493	     -0.88529816	     -7.83093631	     11.04742160	      1.59223463	      6.95795536	     -5.32442112	     -1.66171471	     -6.02973610	     -6.12126444	    -15.82664709	      7.77175095	     15.50606791	     90.00000000	      3.28548003	    -20.01969195	     14.40012877	     40.55462910	     90.00000000
      1.77000000	     -0.61909866	      3.10489195	     -0.68180140	      0.64844800	      0.92079402	      0.22278846	     25.67526458	     -2.14677324	     -2.21365722	    -25.22553187	      0.13385855	     -7.91334680	     18.83758424	     -8.21851486	      6.47669749	     -0.70769818	     -7.10072029	     11.07881680	      1.77328480	      6.95954034	     -5.43958805	     -1.64729465	     -6.37718163	     -6.36095552	    -15.68947831	      7.48555478	     14.92176279	     90.00000000	      3.52590399	    -20.26856431	     13.96136511	     42.13037206	     90.00000000
      1.78000000	     -0.45630045	      3.08205390	     -0.44373072	      0.66241712	      0.91984747	      0.22353136	     25.27921672	     -2.31645186	     -2.90936524	    -21.09368556	      0.09578566	     -6.71674736	     18.47766965	     -9.73418607	      6.32210905	     -0.52586780	     -6.40661186	     10.98880850	      2.11063727	      7.00424202	     -5.60844145	     -1.61595896	     -6.73800876	     -6.58736802	    -15.55718751	      7.22992198	     14.32206686	     90.00000000	      3.73342584	    -20.45447959	     13.47126325	     43.54799418	     90.00000000
      1.79000000	     -0.27763555	      3.09807670	     -0.19373006	      0.67624974	      0.91878355	      0.22417966	     24.77167916	     -2.46786424	     -3.47727455	    -17.01471748	      0.37276713	     -5.22796503	     17.91630499	    -11.14787613	      6.18931712	     -0.31514006	     -5.90616353	     11.04045578	      2.49388900	      7.11417751	     -5.83574328	     -1.61452331	     -7.09292629	     -6.75632085	    -15.41829499	      7.00560581	     13.74602832	     90.00000000	      3.86137314	    -20.63472777	     12.80243536	     45.14245860	     90.00000000
      1.80000000	     -0.02418918	      3.10380471	      0.09848746	      0.69041953	      0.91777280	      0.22496191	     24.22772329	     -2.62851945	     -4.39117884	    -13.36504495	      0.79699367	     -3.25233853	     17.17301566	    -12.60016962	      5.99156268	     -0.08399786	     -5.50719469	     10.98060162	      3.04833667	      7.28270947	     -6.09666120	     -1.62692821	     -7.50706287	     -6.94677772	    -15.30387569	      6.74093880	     13.32950849	     90.00000000	      3.89514663	    -20.80176896	     12.01521050	     46.70300107	     90.00000000
      1.81000000	      0.07571449	      3.04595033	      0.32384436	      0.70476893	      0.91642552	      0.22606897	     23.92248088	     -2.63110425	     -5.22258625	    -10.26959316	      1.82693231	     -1.04009806	     13.79268396	    -13.76511645	      5.70999398	     -0.00922399	     -5.34673061	     10.90854619	      3.64430662	      8.22436610	     -6.15468704	     -1.58712136	     -7.82658192	     -7.16732530	    -15.18279195	      6.81059264	     12.91397994	     90.00000000	      3.85331777	    -20.93511819	     11.30393930	     48.06517099	     90.00000000
